<?xml version="1.0" encoding="utf-8"?>
<!-- Generator: Adobe Illustrator 21.0.0, SVG Export Plug-In . SVG Version: 6.00 Build 0)  -->
<svg version="1.1" id="Layer_1" xmlns="http://www.w3.org/2000/svg" xmlns:xlink="http://www.w3.org/1999/xlink" x="0px" y="0px"
	 viewBox="0 0 400.7 346.7" style="enable-background:new 0 0 400.7 346.7;" xml:space="preserve">
<style type="text/css">
	.st0{fill:#808384;}
	.st1{fill:#006F41;}
	.st2{fill:#AB892C;}
</style>
<g>
	<g>
		<path class="st0" d="M16.9,277.9l0.2,18.2c0,2-0.6,3.7-1.9,5.1c-1.3,1.4-2.9,2.1-4.7,2.1c-1.8,0-3.4-0.7-4.8-2.1
			c-1.3-1.4-1.9-3.1-1.9-5l0-6.4H2.1c0.1,3.6,0.1,5.7,0.1,6.4c0,2.4,0.8,4.5,2.4,6.2c1.6,1.7,3.6,2.6,5.9,2.6c2.3,0,4.2-0.9,5.9-2.6
			c1.6-1.7,2.4-3.8,2.4-6.3l-0.2-18.2H16.9z"/>
		<path class="st0" d="M100.4,298.1l-0.6-1.5H96c-1.2,0-2.2-0.4-3.1-1.2c-0.9-0.8-1.3-1.9-1.3-3.2c0-1.5,0.5-2.7,1.4-3.5
			c0.7-0.7,1.5-1,2.2-1c1.2,0,2.2,0.5,3,1.5l1-1c-1-1.2-2.4-1.8-4.1-1.8c-1.5,0-2.8,0.5-3.8,1.5c-1.1,1-1.6,2.4-1.7,4.1
			c0,1.7,0.7,3.3,2.2,4.7H87h-6.2h-3c0.1-0.5,0.1-0.9,0.1-1.5c0-1.6-0.5-2.9-1.4-4c-1-1.2-2.3-1.8-4-1.8c-3.2,0-5.2,2.2-5.2,5.8
			c0,0.5,0.1,1,0.2,1.5H29.6v0h-2.9c-0.9,0-1.9-1-1.9-2.1l-0.2-16.6H23l0.1,16.9c0,1.1,0.4,1.9,1.1,2.6c0.6,0.6,1.3,0.8,2,0.8h3.4
			h34.7H68c1,1.9,2.6,2.9,4.7,2.9c2.3,0,3.8-1,4.6-2.9h3.4H100.4z M72.8,300c-0.9,0-1.8-0.4-2.5-1.2c-0.7-0.9-1.1-2.1-1.1-3.6
			c0-3,1.4-4.7,3.4-4.7c0.9,0,1.7,0.4,2.4,1.2c0.7,0.9,1.1,2.1,1.1,3.5C76.2,298.1,74.8,300,72.8,300z"/>
		<path class="st0" d="M111.3,277.9c0.1,8.8,0.2,13.4,0.2,13.9c0,1.8-0.7,3.1-2.1,3.9c-1,0.6-2.2,0.9-3.6,0.9h-1.9v1.5h2.2
			c4.7,0,7.2-2.3,7.2-6.3l-0.2-13.9H111.3z"/>
		<path class="st0" d="M105.4,294.4c0.7-0.1,1.3-0.3,1.7-0.5l-0.2-16h-1.7C105.4,286.2,105.4,291.8,105.4,294.4z"/>
		<path class="st0" d="M108.8,275.1h-1.2c-1.1,0-1.8-0.7-1.8-1.5c0-1,0.4-1.6,1.3-1.6c0.5,0,0.9,0.2,1.2,0.6l0.4-0.7
			c-0.5-0.5-1-0.7-1.6-0.7c-1.4,0-2.3,1-2.3,2.3c0,0.6,0.2,1.1,0.7,1.6H104l-0.5,0.9h5.2V275.1z"/>
		<polygon class="st0" points="117.4,277.9 117.5,298.1 119.2,298.1 119.1,277.9 		"/>
		<rect x="138.1" y="308" class="st0" width="1.7" height="2"/>
		<rect x="134.7" y="308" class="st0" width="1.7" height="2"/>
		<path class="st0" d="M151.8,296.6c-1.3,0-2-0.7-2.4-2.2c-0.5-2.5-1.1-4.2-1.7-5.2c-1-1.7-2.5-2.5-4.5-2.5c-3.8,0-5.7,2.4-5.8,7.3
			h6l0.1,2c0.1,2-0.5,3.7-1.7,5.1c-1.3,1.5-2.9,2.2-4.9,2.2c-1.8,0-3.4-0.7-4.8-2.2c-1.3-1.4-1.9-3.1-1.9-5c0-0.2,0-0.7,0-1.5
			c0-0.8,0-1.5,0-2h-1.7c0,0.4,0,1.1,0.1,1.9c0,0.8,0.1,1.3,0.1,1.6c0,2.4,0.8,4.5,2.4,6.2c1.6,1.7,3.6,2.6,5.9,2.6
			c2.5,0,4.5-0.9,6.1-2.6c1.5-1.7,2.3-3.7,2.2-6.2l-0.1-3.7h-5.8c0-2.5,1.6-4.3,3.9-4.2c1.5,0,2.7,0.8,3.4,2.3
			c0.3,0.7,0.7,2,1.3,4.2c0.3,1.1,0.7,1.9,1.4,2.6c0.6,0.6,1.3,0.9,2.1,0.9h17.2c1.9,0,2.9-0.8,3-2.4v-7.6c0-3.3-1.6-4.9-4.9-4.9
			c-1.2,0-2.3,0.4-3.2,1.2c-1.2,1-1.8,2.6-1.9,4.6c-0.1,1.5,0.4,2.8,1.2,3.9c0.9,1.1,2,1.6,3.4,1.6h3.7v0.5c0,1.1-0.5,1.6-1.6,1.6
			L151.8,296.6z M166.9,293c-1,0-1.9-0.4-2.5-1.2c-0.6-0.8-0.9-1.8-0.8-2.9c0.1-2.9,1.6-4.6,3.5-4.6c1.8,0,2.8,1.1,2.8,3.2l0.1,5.7
			H166.9z"/>
		<rect x="166.2" y="278.7" class="st0" width="1.7" height="2"/>
		<rect x="183.5" y="281.3" class="st0" width="1.7" height="2"/>
		<rect x="186.9" y="281.3" class="st0" width="1.7" height="2"/>
		<path class="st0" d="M186.1,286.4c-3.2,0-5.2,2.2-5.2,5.8c0,1.6,0.5,2.9,1.4,4c1,1.2,2.4,1.8,4,1.8c3.2,0,5.1-2.2,5.1-5.9
			c0-1.6-0.5-2.9-1.4-4C189.1,287,187.7,286.4,186.1,286.4z M186.3,297.1c-0.9,0-1.7-0.4-2.4-1.2c-0.7-0.9-1.1-2.1-1.1-3.6
			c0-3,1.4-4.8,3.4-4.8c0.9,0,1.8,0.4,2.5,1.2c0.7,0.9,1.1,2.1,1.1,3.5C189.8,295.2,188.3,297.1,186.3,297.1z"/>
		<path class="st0" d="M200.2,286.7v1.4c1.1,0.2,2.2,1,3,2.6c0.9,1.7,1.5,3.6,1.6,5.9h-9l-0.5,1.5h11c0-3.6-0.7-6.4-2-8.5
			C203.2,287.8,201.8,286.9,200.2,286.7z"/>
		<path class="st0" d="M249.4,298.1c1.3,0,2.3-0.4,3-1.1c0.6-0.7,0.9-1.7,0.9-2.9l-0.1-7.4h-1.7c0,3.5,0.1,6,0.1,7.4
			c0,1.7-0.8,2.5-2.5,2.5l-34.9,0c-0.9,0-1.9-1-1.9-2.1l-0.2-16.6h-1.7l0.1,16.9c0,1.1,0.4,1.9,1.1,2.6c0.6,0.6,1.3,0.8,2,0.8H249.4
			z"/>
		<rect x="247.3" y="301.2" class="st0" width="1.7" height="2"/>
		<rect x="250.7" y="301.2" class="st0" width="1.7" height="2"/>
		<path class="st0" d="M276.4,298.1c1.3,0,2.3-0.4,3-1.1c0.6-0.7,0.9-1.7,0.9-2.9c0-6.5-0.1-11.9-0.1-16.3h-1.7
			c0,6.5,0.1,11.9,0.1,16.2c0,1.7-0.8,2.5-2.5,2.5l-9.2,0h-2.4c-0.7,0-1.4-0.3-2-1c-0.7-0.7-1.1-1.7-1.1-2.8l-0.1-6.1h-1.7l0,8.8
			c0,2.2-0.6,4-1.9,5.4c-1.3,1.6-3,2.4-5,2.5c0.3,0.7,0.5,1.1,0.7,1.4c2.4-0.2,4.2-1.2,5.7-2.9c1.5-1.7,2.2-3.8,2.3-6.3
			c0.2,0.7,0.5,1.2,1,1.6c0.6,0.6,1.4,0.9,2.3,0.9H276.4z"/>
		<polygon class="st0" points="284.6,277.9 284.7,298.1 286.4,298.1 286.3,277.9 		"/>
		<path class="st0" d="M308.4,296.6c-0.2-3.1-0.9-5.5-2.2-7.3c-1.1-1.6-2.4-2.4-3.9-2.6v1.4c1.1,0.2,2.2,1,3,2.6
			c0.9,1.7,1.5,3.6,1.6,5.9h-9l-0.5,1.5h67.2c1.8,0,3.7-0.6,5.6-1.7c0.9,1.1,2,1.7,3.2,1.7h20.4c3.2,0,5.2-2.2,5.2-5.9
			c0-1.6-0.5-2.9-1.4-4c-1-1.2-2.4-1.8-4-1.8c-3.2,0-5.2,2.2-5.2,5.8c0,1.8,0.5,3.2,1.7,4.3h-17c-0.7,0-1.2-0.2-1.7-0.8
			c3.2-2.2,5.4-4.5,6.8-6.9c-0.7-0.7-1.6-1.4-2.8-2c-1.8-0.9-3.8-1.4-6-1.4c-2.1,0-4.1,0.3-5.8,1.1c-1.1,0.5-1.8,0.9-2.4,1.4v2.2
			c2.8,0.2,5.5,1.9,8.1,5.1c-1.7,0.9-3.3,1.3-4.8,1.3l-10.8,0h-2.9c-0.3-2.8-1.1-5.1-2.5-6.7c-1.7-2.1-4.1-3.1-7.3-3.1
			c-2.1,0-4.1,0.4-6.1,1.2l0.4,1.3c0.7-0.3,1.7-0.7,2.8-0.9c-1.1,1.2-1.6,2.6-1.6,4.2c0,1.5,0.5,2.8,1.7,4H308.4z M341.4,296.7
			c-0.8,0-1.6-0.4-2.1-1.1c-0.6-0.8-1-1.9-1-3.2c0-2.7,1.2-4.3,2.9-4.3c0.8,0,1.6,0.4,2.1,1.1c0.6,0.8,1,1.9,1,3.2
			C344.3,295.2,343.1,296.7,341.4,296.7z M344.4,296.6c1-1.2,1.5-2.5,1.5-4c0-1.7-0.5-3.1-1.4-4.1c1.3,0.4,2.5,1.5,3.4,3.2
			c0.9,1.6,1.3,3.2,1.3,4.9H344.4z M362.4,289c1.3-0.7,2.4-1.2,3.2-1.5c1.1-0.3,2.5-0.5,4-0.5c1.6,0,3,0.2,4.2,0.7
			c0.5,0.2,1.4,0.7,2.5,1.4c-1.1,1.8-3.1,3.7-5.9,5.6C368.3,291.8,365.7,289.8,362.4,289z M396.4,295.7c-0.6,0.7-1.4,1.1-2.4,1.1
			c-1,0-1.8-0.4-2.5-1.1c-0.7-0.8-1.1-2-1.1-3.4s0.3-2.6,1-3.4c0.6-0.7,1.4-1.1,2.4-1.1s1.8,0.4,2.5,1.1c0.7,0.8,1.1,2,1.1,3.4
			S397,294.9,396.4,295.7z"/>
	</g>
	<g>
		<path class="st0" d="M16.2,325c-1.7-1.6-3.7-2.3-6.1-2.3c0,0,0,0,0,0c-0.9,0.1-1.9,0.3-2.8,0.6c-1.8,0.7-3.1,1.8-4,3.3
			c-0.7,1.4-1,2.8-1,4.1c0,1.3,0.3,2.6,0.9,3.8c0.2,0.6,1,1.5,2.3,2.7c1.5,1,3.1,1.5,4.6,1.5h0.8c0.6,0,1.5-0.1,2.6-0.5
			c1.5-0.6,2.7-1.5,3.7-2.8c0.6-1.1,1-2,1.2-2.8h-1.7c-0.1,0.3-0.2,0.6-0.3,0.9c-1.2,2.4-3.2,3.6-6.1,3.6c-0.6,0-1.3-0.1-2.1-0.4
			c-0.8-0.2-1.7-0.8-2.8-1.8c-0.9-1.2-1.4-2.5-1.4-3.8v0h3.9h10.5v-0.6c0-1.6-0.4-3.1-1.3-4.5L16.2,325z M4,329.5
			c0.1-0.9,0.5-2,1.3-3c0.8-0.8,1.5-1.3,2.3-1.7c1.2-0.4,2.1-0.5,2.8-0.5c0.8,0,1.6,0.2,2.6,0.5c1.1,0.4,2.1,1.1,2.8,2.2
			c0.5,0.6,0.8,1.4,1,2.5H4z"/>
		<path class="st0" d="M35.1,324.1c-1.4-0.9-2.9-1.4-4.5-1.5c-1.6,0-3,0.3-4,0.8c-0.2,0-0.5,0.2-1.9,1.2c-0.4,0.4-0.7,0.7-1,1.1
			v-3.1h-1.6v16.1h1.6v-7c0-1,0.1-1.9,0.2-2.7c0.4-1.3,0.9-2.3,1.7-3c0.2-0.2,0.7-0.6,1.4-1c1.2-0.5,2.3-0.8,3.2-0.8
			c1.1,0.1,1.9,0.2,2.3,0.4c2.8,1.1,4.2,3.1,4.2,6.2v7.8h1.5v-7.7c0-1.1-0.1-2-0.2-2.5C37.5,326.6,36.5,325.1,35.1,324.1z"/>
		<path class="st0" d="M50.4,337.1c-1.4,0-2.8-0.4-4.1-1.3c-1.1-1-1.8-1.9-2.1-2.6c-0.4-1.1-0.7-2.1-0.7-2.9v-6.2h6.8v-1.6h-6.8
			v-5.7h-1.5v12.9c0,2.4,0.7,4.5,2.1,6.1c1.8,1.8,3.9,2.7,6.4,2.7h0.3v-1.3l-0.1-0.2H50.4z"/>
		<path class="st0" d="M60.1,322.6c-1.6,0-2.9,0.6-4.1,1.8v-1.9h-1.5v16H56v-9.8c0-1.3,0.2-2.3,0.6-2.8c0.8-1.2,2-1.8,3.6-1.8h0.2
			v-1.3l-0.1-0.2H60.1z"/>
		<path class="st0" d="M96.1,323.6c-1.2-0.6-2.4-0.9-3.6-1c-1.9,0-3.4,0.3-4.5,1c-0.7,0.3-1.5,1-2.5,2.1v-3.2H84v21.7h1.6v-8.8
			c0.3,0.3,0.6,0.7,1.1,1.2c1.6,1.3,3.3,1.9,5.2,1.9c0.9,0,1.8-0.1,2.8-0.4c2.1-0.8,3.6-1.9,4.4-3.5c0.7-1.1,1-2.5,1-4.1
			c0-1.2-0.1-2.1-0.4-2.7C99,326,97.8,324.5,96.1,323.6z M95.8,335.9c-1.3,0.7-2.4,1.1-3.5,1.1h-0.5c-1.2,0-2.4-0.4-3.6-1.1
			c-1.7-1.3-2.6-3-2.6-5l0-0.2l0-0.1v-0.1c0-1.8,0.7-3.4,2-4.6c1.4-1,2.9-1.5,4.2-1.5h0.3c1.9,0,3.6,0.8,4.9,2.2
			c0.9,1.3,1.4,2.7,1.4,4.1C98.5,332.8,97.6,334.6,95.8,335.9z"/>
		<path class="st0" d="M109.4,322.6c-1.6,0-2.9,0.6-4.1,1.8v-1.9h-1.5v16h1.5v-9.8c0-1.3,0.2-2.3,0.6-2.8c0.8-1.2,2-1.8,3.6-1.8h0.2
			v-1.3l-0.1-0.2H109.4z"/>
		<path class="st0" d="M146.3,324.1c-1.4-0.9-2.9-1.4-4.5-1.5c-1.6,0-3,0.3-4,0.8c-0.2,0-0.5,0.2-1.9,1.2c-0.4,0.4-0.7,0.7-1,1.1
			v-3.1h-1.5v16.1h1.5v-7c0-1,0.1-1.9,0.2-2.7c0.4-1.3,0.9-2.3,1.7-3c0.2-0.2,0.7-0.6,1.4-1c1.2-0.5,2.3-0.8,3.2-0.8
			c1.1,0.1,1.9,0.2,2.3,0.4c2.8,1.1,4.2,3.1,4.2,6.2v7.8h1.5v-7.7c0-1.1-0.1-2-0.2-2.5C148.7,326.6,147.7,325.1,146.3,324.1z"/>
		<path class="st0" d="M187.6,330.4c0,2.2-0.8,3.9-2.3,5.2c-1.4,0.9-2.7,1.4-4,1.4h-0.4c-0.7,0-1.5-0.2-2.4-0.5
			c-1.4-0.6-2.5-1.4-3.1-2.6c-0.6-0.8-0.9-2.3-0.9-4.5v-6.9H173v7.8c0,0.4,0.1,1.1,0.2,1.9c0.4,1.7,1,2.9,1.8,3.7
			c1.4,1.7,3.6,2.6,6.3,2.6h0.3c0.6,0,1.3-0.1,2-0.4c1.7-0.5,3-1.4,3.9-2.7v3h1.5v-16.1h-1.5V330.4z"/>
		<path class="st0" d="M198.4,322.6c-1.6,0-2.9,0.6-4.1,1.8v-1.9h-1.5v16h1.5v-9.8c0-1.3,0.2-2.3,0.6-2.8c0.8-1.2,2-1.8,3.6-1.8h0.2
			v-1.3l-0.1-0.2H198.4z"/>
		<path class="st0" d="M204.1,323.5c-1.1,1-1.6,2.2-1.6,3.6c0,1.4,0.6,2.6,1.8,3.6c0.8,0.5,1.6,0.8,2.6,0.8c0,0,6.3,0,6.3,0l0.8,0.2
			c1.2,0.6,1.8,1.4,1.8,2.6l-0.1,0.8c-0.4,1.4-1.4,2.1-3.2,2.1h-10.1v1.5h10.3l1.1-0.1c0.9-0.2,1.6-0.6,2.2-1.2
			c0.7-0.8,1.1-1.6,1.2-2.5v-1.1l-0.1-0.7c-0.2-0.7-0.6-1.4-1.3-2.1c-0.7-0.6-1.5-0.9-2.4-1h-6.9c-0.4,0-0.9-0.3-1.5-0.6
			c-0.7-0.7-1.1-1.4-1.1-2.2c0-0.3,0.1-0.7,0.2-1.1c0.4-1.3,1.5-1.9,3.1-1.9h10v-1.5h-9.8C206.1,322.6,205,322.9,204.1,323.5z"/>
		<path class="st0" d="M234.2,324.2c-1.7-1.1-3.2-1.6-4.9-1.6c-1.4,0-2.6,0.2-3.5,0.7c-1.4,0.6-2.5,1.5-3.2,2.5v-8.9h-1.6v21.8h1.6
			v-7.3c0-2.1,0.5-3.8,1.4-4.9l0.5-0.5c1.4-1.1,2.9-1.7,4.6-1.7c1,0.1,1.8,0.2,2.4,0.4c2.8,1.1,4.1,3.1,4.1,6.2v7.9h1.5v-7.7
			c0-1.7-0.2-2.9-0.6-3.6C236.3,326.3,235.5,325.2,234.2,324.2z"/>
		<rect x="241" y="322.6" class="st0" width="1.5" height="16"/>
		<rect x="241" y="316.9" class="st0" width="1.5" height="3"/>
		<path class="st0" d="M258.3,323.6c-1.2-0.6-2.4-0.9-3.6-1c-1.9,0-3.4,0.3-4.5,1c-0.7,0.3-1.5,1-2.5,2.1v-3.2h-1.5v21.7h1.5v-8.8
			c0.3,0.3,0.6,0.7,1.1,1.2c1.6,1.3,3.3,1.9,5.2,1.9c0.9,0,1.8-0.1,2.8-0.4c2.1-0.8,3.6-1.9,4.4-3.5c0.7-1.1,1-2.5,1-4.1
			c0-1.2-0.1-2.1-0.4-2.7C261.2,326,260,324.5,258.3,323.6z M258.1,335.9c-1.3,0.7-2.4,1.1-3.5,1.1H254c-1.2,0-2.4-0.4-3.6-1.1
			c-1.7-1.3-2.5-3-2.5-5l0-0.2l0-0.1v-0.1c0-1.8,0.7-3.4,2-4.6c1.4-1,2.9-1.5,4.2-1.5h0.3c1.9,0,3.6,0.8,4.9,2.2
			c0.9,1.3,1.4,2.7,1.4,4.1C260.8,332.8,259.9,334.6,258.1,335.9z"/>
		<rect x="276.2" y="316.9" class="st0" width="1.5" height="3"/>
		<rect x="276.2" y="322.6" class="st0" width="1.5" height="16"/>
		<path class="st0" d="M294.4,324.1c-1.4-0.9-2.9-1.4-4.5-1.5c-1.6,0-3,0.3-4,0.8c-0.2,0-0.5,0.2-1.9,1.2c-0.4,0.4-0.7,0.7-1,1.1
			v-3.1h-1.5v16.1h1.5v-7c0-1,0.1-1.9,0.2-2.7c0.4-1.3,0.9-2.3,1.7-3c0.2-0.2,0.7-0.6,1.4-1c1.2-0.5,2.3-0.8,3.2-0.8
			c1.1,0.1,1.9,0.2,2.3,0.4c2.8,1.1,4.2,3.1,4.2,6.2v7.8h1.6v-7.7c0-1.1-0.1-2-0.2-2.5C296.8,326.6,295.8,325.1,294.4,324.1z"/>
		<path class="st0" d="M302.9,323.5c-1.1,1-1.6,2.2-1.6,3.6c0,1.4,0.6,2.6,1.8,3.6c0.8,0.5,1.6,0.8,2.6,0.8c0,0,6.3,0,6.3,0l0.9,0.2
			c1.2,0.6,1.8,1.4,1.8,2.6l-0.1,0.8c-0.4,1.4-1.4,2.1-3.2,2.1h-10.1v1.5h10.3l1.1-0.1c0.9-0.2,1.6-0.6,2.2-1.2
			c0.7-0.8,1.1-1.6,1.2-2.5l0-1.1l-0.1-0.7c-0.2-0.7-0.6-1.4-1.3-2.1c-0.7-0.6-1.5-0.9-2.4-1h-6.9c-0.4,0-0.9-0.3-1.5-0.6
			c-0.7-0.7-1.1-1.4-1.1-2.2c0-0.3,0.1-0.7,0.2-1.1c0.4-1.3,1.4-1.9,3.1-1.9h10v-1.5h-9.8C304.9,322.6,303.8,322.9,302.9,323.5z"/>
		<path class="st0" d="M328.4,337.1c-1.4,0-2.8-0.4-4.1-1.3c-1.1-1-1.8-1.9-2.1-2.6c-0.4-1.1-0.7-2.1-0.7-2.9v-6.2h6.8v-1.6h-6.8
			v-5.7h-1.5v12.9c0,2.4,0.7,4.5,2.1,6.1c1.8,1.8,3.9,2.7,6.4,2.7h0.3v-1.3l-0.1-0.2H328.4z"/>
		<rect x="332.5" y="316.9" class="st0" width="1.5" height="3"/>
		<rect x="332.5" y="322.6" class="st0" width="1.5" height="16"/>
		<path class="st0" d="M346.2,337.1c-1.4,0-2.8-0.4-4.1-1.3c-1.1-1-1.8-1.9-2.1-2.6c-0.4-1.1-0.7-2.1-0.7-2.9v-6.2h6.8v-1.6h-6.8
			v-5.7h-1.6v12.9c0,2.4,0.7,4.5,2.1,6.1c1.8,1.8,3.9,2.7,6.4,2.7h0.3v-1.3l-0.1-0.2H346.2z"/>
		<path class="st0" d="M364.9,330.4c0,2.2-0.8,3.9-2.3,5.2c-1.4,0.9-2.7,1.4-4,1.4h-0.4c-0.7,0-1.5-0.2-2.4-0.5
			c-1.4-0.6-2.5-1.4-3.1-2.6c-0.6-0.8-0.9-2.3-0.9-4.5v-6.9h-1.6v7.8c0,0.4,0.1,1.1,0.2,1.9c0.4,1.7,1,2.9,1.8,3.7
			c1.4,1.7,3.6,2.6,6.3,2.6h0.3c0.6,0,1.3-0.1,2-0.4c1.7-0.5,3-1.4,4-2.7v3h1.5v-16.1h-1.5V330.4z"/>
		<path class="st0" d="M378.6,337.1c-1.4,0-2.8-0.4-4.1-1.3c-1.1-1-1.8-1.9-2.1-2.6c-0.4-1.1-0.7-2.1-0.7-2.9v-6.2h6.8v-1.6h-6.8
			v-5.7h-1.6v12.9c0,2.4,0.7,4.5,2.1,6.1c1.8,1.8,3.9,2.7,6.4,2.7h0.3v-1.3l-0.2-0.2H378.6z"/>
		<path class="st0" d="M78.1,325c-1.7-1.6-3.7-2.3-6.1-2.3h0c-0.9,0.1-1.9,0.3-2.8,0.6c-1.8,0.7-3.1,1.8-4,3.3c-0.7,1.4-1,2.8-1,4.1
			c0,1.3,0.3,2.6,0.9,3.8c0.2,0.6,1,1.5,2.3,2.7c1.5,1,3.1,1.5,4.6,1.5h0.8c0.6,0,1.5-0.1,2.6-0.5c1.5-0.6,2.7-1.5,3.7-2.8
			c0.6-1.1,1-2,1.2-2.8h-1.7c-0.1,0.3-0.2,0.6-0.3,0.9c-1.2,2.4-3.2,3.6-6.1,3.6c-0.6,0-1.3-0.1-2.1-0.4c-0.8-0.2-1.7-0.8-2.8-1.8
			c-0.9-1.2-1.4-2.5-1.4-3.8v0h3.9h10.5v-0.6c0-1.6-0.4-3.1-1.3-4.5L78.1,325z M65.9,329.5c0.1-0.9,0.5-2,1.3-3
			c0.8-0.8,1.5-1.3,2.3-1.7c1.2-0.4,2.1-0.5,2.8-0.5c0.8,0,1.6,0.2,2.6,0.5c1.1,0.4,2.1,1.1,2.8,2.2c0.5,0.6,0.8,1.4,1,2.5H65.9z"/>
		<path class="st0" d="M127.4,325c-1.7-1.6-3.7-2.3-6.1-2.3c0,0,0,0,0,0c-0.9,0.1-1.9,0.3-2.8,0.6c-1.8,0.7-3.1,1.8-4,3.3
			c-0.7,1.4-1,2.8-1,4.1c0,1.3,0.3,2.6,0.9,3.8c0.2,0.6,1,1.5,2.3,2.7c1.5,1,3.1,1.5,4.6,1.5h0.8c0.6,0,1.5-0.1,2.6-0.5
			c1.5-0.6,2.7-1.5,3.7-2.8c0.6-1.1,1-2,1.2-2.8h-1.7c-0.1,0.3-0.2,0.6-0.3,0.9c-1.2,2.4-3.2,3.6-6.1,3.6c-0.6,0-1.3-0.1-2.1-0.4
			c-0.8-0.2-1.7-0.8-2.8-1.8c-0.9-1.2-1.4-2.5-1.4-3.8v0h3.9h10.5v-0.6c0-1.6-0.4-3.1-1.3-4.5L127.4,325z M115.2,329.5
			c0.1-0.9,0.5-2,1.3-3c0.8-0.8,1.5-1.3,2.3-1.7c1.2-0.4,2.1-0.5,2.8-0.5c0.8,0,1.6,0.2,2.6,0.5c1.1,0.4,2.1,1.1,2.8,2.2
			c0.5,0.6,0.8,1.4,1,2.5H115.2z"/>
		<path class="st0" d="M167.1,325c-1.7-1.6-3.7-2.3-6.1-2.3h0c-0.9,0.1-1.9,0.3-2.8,0.6c-1.8,0.7-3.1,1.8-4,3.3
			c-0.7,1.4-1,2.8-1,4.1c0,1.3,0.3,2.6,0.9,3.8c0.2,0.6,1,1.5,2.3,2.7c1.5,1,3.1,1.5,4.6,1.5h0.8c0.6,0,1.5-0.1,2.6-0.5
			c1.5-0.6,2.7-1.5,3.7-2.8c0.6-1.1,1-2,1.2-2.8h-1.7c-0.1,0.3-0.2,0.6-0.3,0.9c-1.2,2.4-3.2,3.6-6.1,3.6c-0.6,0-1.3-0.1-2.1-0.4
			c-0.8-0.2-1.7-0.8-2.8-1.8c-0.9-1.2-1.4-2.5-1.4-3.8v0h3.9h10.5v-0.6c0-1.6-0.4-3.1-1.3-4.5L167.1,325z M154.9,329.5
			c0.1-0.9,0.5-2,1.3-3c0.8-0.8,1.5-1.3,2.3-1.7c1.2-0.4,2.1-0.5,2.8-0.5c0.8,0,1.6,0.2,2.6,0.5c1.1,0.4,2.1,1.1,2.8,2.2
			c0.5,0.6,0.8,1.4,1,2.5H154.9z"/>
		<path class="st0" d="M388.2,331h10.5v-0.6c0-1.6-0.4-3.1-1.3-4.5l-0.8-1c-1.7-1.6-3.7-2.3-6.1-2.3c0,0,0,0,0,0
			c-0.9,0.1-1.9,0.3-2.8,0.6c-1.8,0.7-3.1,1.8-4,3.3c-0.7,1.4-1,2.8-1,4.1c0,1.3,0.3,2.6,0.9,3.8c0.2,0.6,1,1.5,2.3,2.7
			c1.5,1,3.1,1.5,4.6,1.5h0.8c0.6,0,1.5-0.1,2.6-0.5c1.5-0.6,2.7-1.5,3.7-2.8c0.6-1.1,1-2,1.2-2.8h-1.7c-0.1,0.3-0.2,0.6-0.3,0.9
			c-1.2,2.4-3.2,3.6-6.1,3.6c-0.6,0-1.3-0.1-2.1-0.4c-0.8-0.2-1.7-0.8-2.8-1.8c-0.9-1.2-1.4-2.5-1.4-3.8v0H388.2z M385.7,326.4
			c0.8-0.8,1.5-1.3,2.3-1.7c1.2-0.4,2.1-0.5,2.8-0.5c0.8,0,1.6,0.2,2.6,0.5c1.1,0.4,2.1,1.1,2.8,2.2c0.4,0.6,0.8,1.4,1,2.5h-12.7
			C384.5,328.5,384.9,327.5,385.7,326.4z"/>
	</g>
</g>
<g>
	<polygon class="st1" points="178.6,196.6 150.6,168.6 229.3,168.6 229.3,155.4 229.3,151.6 229.3,141.8 229.3,133.3 229.3,124.8 
		150.6,124.8 178.6,96.8 227.5,96.8 227.3,76 223.3,53 160.5,53 105.6,107.9 105.6,185.5 160.5,240.4 230.3,240.4 230.3,232.8 
		230.3,223.4 230.3,213.6 230.3,206.1 230.3,196.6 	"/>
	<polygon class="st2" points="258,42.7 242.4,44.7 244.6,66.7 258,64.9 	"/>
	<polygon class="st2" points="239.1,46.1 231.8,51.9 235,72.2 241.2,67.4 241.2,67.4 	"/>
	<path class="st2" d="M243,90.6c-0.2-3.8-1.1-14.2-1.4-19.2l-6.1,4.6l1.8,17.9L243,90.6z"/>
	<path class="st2" d="M238.6,42.1c-0.9-6-4.7-30.3-5.5-35.7l-9.2,8.7l7.1,33L238.6,42.1z"/>
	<polygon class="st2" points="277.1,44.7 261.5,42.7 261.5,64.9 274.9,66.7 	"/>
	<polygon class="st2" points="287.7,51.9 280.4,46.1 278.3,67.4 278.3,67.4 284.5,72.2 	"/>
	<path class="st2" d="M276.5,90.6l5.6,3.4l1.8-17.9l-6-4.6C277.6,76.4,276.7,86.8,276.5,90.6z"/>
	<path class="st2" d="M288.5,48.1l7.1-33l-9.2-8.7c-0.8,5.4-4.6,29.7-5.5,35.7L288.5,48.1z"/>
	<path class="st2" d="M258,39.3V1.9l-21.6,3.4c0.5,3.6,4.5,29.5,5.5,36.1L258,39.3z"/>
	<path class="st2" d="M283.1,5.3l-21.6-3.4v37.4l16.1,2.1C278.5,34.7,282.5,8.9,283.1,5.3z"/>
	<path class="st2" d="M274.6,70.1l-13.2-1.7v20.7l11.6,1C273.4,86.3,274.1,76.6,274.6,70.1z"/>
	<path class="st2" d="M258,89.1V68.4l-13.2,1.7c0.5,6.5,1.3,16.1,1.6,19.9L258,89.1z"/>
	<polygon class="st1" points="246.5,93.5 246.5,240.4 252.3,240.4 258,234.7 258,92.5 	"/>
	<polygon class="st1" points="237.5,98 237.5,240.4 243.1,240.4 243.1,94.5 	"/>
	<polygon class="st1" points="261.5,92.5 261.5,231.3 273,219.8 273,93.5 	"/>
	<polygon class="st1" points="276.4,94.5 276.4,216.3 282,210.7 282,98 	"/>
</g>
</svg>
