<?xml version="1.0" encoding="utf-8"?>
<!-- Generator: Adobe Illustrator 23.0.0, SVG Export Plug-In . SVG Version: 6.00 Build 0)  -->
<svg version="1.1" id="Layer_1" xmlns="http://www.w3.org/2000/svg" xmlns:xlink="http://www.w3.org/1999/xlink" x="0px" y="0px"
	 viewBox="0 0 190 238.5" style="enable-background:new 0 0 190 238.5;" xml:space="preserve">
<style type="text/css">
	.st0{fill:#006F41;}
	.st1{fill:#AB892C;}
</style>
<g>
	<polygon class="st0" points="73,194.7 45,166.7 123.7,166.7 123.7,153.5 123.7,149.7 123.7,139.9 123.7,131.4 123.7,122.9 
		45,122.9 73,94.9 121.9,94.9 121.7,74.1 117.7,51.1 54.9,51.1 0,106 0,183.6 54.9,238.5 124.7,238.5 124.7,230.9 124.7,221.5 
		124.7,211.7 124.7,204.2 124.7,194.7 	"/>
	<polygon class="st1" points="152.4,40.8 136.8,42.8 139,64.8 152.4,63 	"/>
	<polygon class="st1" points="133.5,44.2 126.2,50 129.4,70.3 135.6,65.5 135.6,65.5 	"/>
	<path class="st1" d="M137.4,88.7c-0.2-3.8-1.1-14.2-1.4-19.2l-6.1,4.6l1.8,17.9L137.4,88.7z"/>
	<path class="st1" d="M133,40.2c-0.9-6-4.7-30.3-5.5-35.7l-9.2,8.7l7.1,33L133,40.2z"/>
	<polygon class="st1" points="171.5,42.8 155.9,40.8 155.9,63 169.3,64.8 	"/>
	<polygon class="st1" points="182.1,50 174.8,44.2 172.7,65.5 172.7,65.5 178.9,70.3 	"/>
	<path class="st1" d="M170.9,88.7l5.6,3.4l1.8-17.9l-6-4.6C172,74.5,171.1,84.9,170.9,88.7z"/>
	<path class="st1" d="M182.9,46.2l7.1-33l-9.2-8.7c-0.8,5.4-4.6,29.7-5.5,35.7L182.9,46.2z"/>
	<path class="st1" d="M152.4,37.4V0l-21.6,3.4c0.5,3.6,4.5,29.5,5.5,36.1L152.4,37.4z"/>
	<path class="st1" d="M177.5,3.4L155.9,0v37.4l16.1,2.1C172.9,32.8,176.9,7,177.5,3.4z"/>
	<path class="st1" d="M169,68.2l-13.2-1.7v20.7l11.6,1C167.8,84.4,168.5,74.7,169,68.2z"/>
	<path class="st1" d="M152.4,87.2V66.5l-13.2,1.7c0.5,6.5,1.3,16.1,1.6,19.9L152.4,87.2z"/>
	<polygon class="st0" points="140.9,91.6 140.9,238.5 146.7,238.5 152.4,232.8 152.4,90.6 	"/>
	<polygon class="st0" points="131.9,96.1 131.9,238.5 137.5,238.5 137.5,92.6 	"/>
	<polygon class="st0" points="155.9,90.6 155.9,229.4 167.4,217.9 167.4,91.6 	"/>
	<polygon class="st0" points="170.8,92.6 170.8,214.4 176.4,208.8 176.4,96.1 	"/>
</g>
</svg>
