<?xml version="1.0" encoding="utf-8"?>
<!-- Generator: Adobe Illustrator 23.0.0, SVG Export Plug-In . SVG Version: 6.00 Build 0)  -->
<svg version="1.1" id="Layer_1" xmlns="http://www.w3.org/2000/svg" xmlns:xlink="http://www.w3.org/1999/xlink" x="0px" y="0px"
	 viewBox="0 0 396.9 73" style="enable-background:new 0 0 396.9 73;" xml:space="preserve">
<style type="text/css">
	.st0{fill:#808384;}
</style>
<g>
	<g>
		<path class="st0" d="M14.8,6.7L15,24.9c0,2-0.6,3.7-1.9,5.1s-2.9,2.1-4.7,2.1S5,31.4,3.6,30c-1.3-1.4-1.9-3.1-1.9-5v-6.4H0
			c0.1,3.6,0.1,5.7,0.1,6.4c0,2.4,0.8,4.5,2.4,6.2s3.6,2.6,5.9,2.6s4.2-0.9,5.9-2.6c1.6-1.7,2.4-3.8,2.4-6.3L16.5,6.7L14.8,6.7
			L14.8,6.7z"/>
		<path class="st0" d="M98.3,26.9l-0.6-1.5h-3.8c-1.2,0-2.2-0.4-3.1-1.2c-0.9-0.8-1.3-1.9-1.3-3.2c0-1.5,0.5-2.7,1.4-3.5
			c0.7-0.7,1.5-1,2.2-1c1.2,0,2.2,0.5,3,1.5l1-1c-1-1.2-2.4-1.8-4.1-1.8c-1.5,0-2.8,0.5-3.8,1.5c-1.1,1-1.6,2.4-1.7,4.1
			c0,1.7,0.7,3.3,2.2,4.7h-4.8h-6.2h-3c0.1-0.5,0.1-0.9,0.1-1.5c0-1.6-0.5-2.9-1.4-4c-1-1.2-2.3-1.8-4-1.8c-3.2,0-5.2,2.2-5.2,5.8
			c0,0.5,0.1,1,0.2,1.5H27.5l0,0h-2.9c-0.9,0-1.9-1-1.9-2.1L22.5,6.8h-1.6L21,23.7c0,1.1,0.4,1.9,1.1,2.6c0.6,0.6,1.3,0.8,2,0.8h3.4
			h34.7h3.7c1,1.9,2.6,2.9,4.7,2.9c2.3,0,3.8-1,4.6-2.9h3.4h19.7V26.9z M70.7,28.8c-0.9,0-1.8-0.4-2.5-1.2c-0.7-0.9-1.1-2.1-1.1-3.6
			c0-3,1.4-4.7,3.4-4.7c0.9,0,1.7,0.4,2.4,1.2c0.7,0.9,1.1,2.1,1.1,3.5C74.1,26.9,72.7,28.8,70.7,28.8z"/>
		<path class="st0" d="M109.2,6.7c0.1,8.8,0.2,13.4,0.2,13.9c0,1.8-0.7,3.1-2.1,3.9c-1,0.6-2.2,0.9-3.6,0.9h-1.9v1.5h2.2
			c4.7,0,7.2-2.3,7.2-6.3L111,6.7H109.2z"/>
		<path class="st0" d="M103.3,23.2c0.7-0.1,1.3-0.3,1.7-0.5l-0.2-16h-1.7C103.3,15,103.3,20.6,103.3,23.2z"/>
		<path class="st0" d="M106.7,3.9h-1.2c-1.1,0-1.8-0.7-1.8-1.5c0-1,0.4-1.6,1.3-1.6c0.5,0,0.9,0.2,1.2,0.6l0.4-0.7
			c-0.5-0.5-1-0.7-1.6-0.7c-1.4,0-2.3,1-2.3,2.3c0,0.6,0.2,1.1,0.7,1.6h-1.5l-0.5,0.9h5.2V3.9H106.7z"/>
		<polygon class="st0" points="115.3,6.7 115.4,26.9 117.1,26.9 117,6.7 		"/>
		<rect x="136" y="36.8" class="st0" width="1.7" height="2"/>
		<rect x="132.6" y="36.8" class="st0" width="1.7" height="2"/>
		<path class="st0" d="M149.7,25.4c-1.3,0-2-0.7-2.4-2.2c-0.5-2.5-1.1-4.2-1.7-5.2c-1-1.7-2.5-2.5-4.5-2.5c-3.8,0-5.7,2.4-5.8,7.3h6
			l0.1,2c0.1,2-0.5,3.7-1.7,5.1c-1.3,1.5-2.9,2.2-4.9,2.2c-1.8,0-3.4-0.7-4.8-2.2c-1.3-1.4-1.9-3.1-1.9-5c0-0.2,0-0.7,0-1.5
			s0-1.5,0-2h-1.7c0,0.4,0,1.1,0.1,1.9c0,0.8,0.1,1.3,0.1,1.6c0,2.4,0.8,4.5,2.4,6.2c1.6,1.7,3.6,2.6,5.9,2.6c2.5,0,4.5-0.9,6.1-2.6
			c1.5-1.7,2.3-3.7,2.2-6.2l-0.1-3.7h-5.8c0-2.5,1.6-4.3,3.9-4.2c1.5,0,2.7,0.8,3.4,2.3c0.3,0.7,0.7,2,1.3,4.2
			c0.3,1.1,0.7,1.9,1.4,2.6c0.6,0.6,1.3,0.9,2.1,0.9h17.2c1.9,0,2.9-0.8,3-2.4V17c0-3.3-1.6-4.9-4.9-4.9c-1.2,0-2.3,0.4-3.2,1.2
			c-1.2,1-1.8,2.6-1.9,4.6c-0.1,1.5,0.4,2.8,1.2,3.9c0.9,1.1,2,1.6,3.4,1.6h3.7v0.5c0,1.1-0.5,1.6-1.6,1.6L149.7,25.4z M164.8,21.8
			c-1,0-1.9-0.4-2.5-1.2c-0.6-0.8-0.9-1.8-0.8-2.9c0.1-2.9,1.6-4.6,3.5-4.6c1.8,0,2.8,1.1,2.8,3.2l0.1,5.7h-3.1V21.8z"/>
		<rect x="164.1" y="7.5" class="st0" width="1.7" height="2"/>
		<rect x="181.4" y="10.1" class="st0" width="1.7" height="2"/>
		<rect x="184.8" y="10.1" class="st0" width="1.7" height="2"/>
		<path class="st0" d="M184,15.2c-3.2,0-5.2,2.2-5.2,5.8c0,1.6,0.5,2.9,1.4,4c1,1.2,2.4,1.8,4,1.8c3.2,0,5.1-2.2,5.1-5.9
			c0-1.6-0.5-2.9-1.4-4C187,15.8,185.6,15.2,184,15.2z M184.2,25.9c-0.9,0-1.7-0.4-2.4-1.2c-0.7-0.9-1.1-2.1-1.1-3.6
			c0-3,1.4-4.8,3.4-4.8c0.9,0,1.8,0.4,2.5,1.2c0.7,0.9,1.1,2.1,1.1,3.5C187.7,24,186.2,25.9,184.2,25.9z"/>
		<path class="st0" d="M198.1,15.5v1.4c1.1,0.2,2.2,1,3,2.6c0.9,1.7,1.5,3.6,1.6,5.9h-9l-0.5,1.5h11c0-3.6-0.7-6.4-2-8.5
			C201.1,16.6,199.7,15.7,198.1,15.5z"/>
		<path class="st0" d="M247.3,26.9c1.3,0,2.3-0.4,3-1.1c0.6-0.7,0.9-1.7,0.9-2.9l-0.1-7.4h-1.7c0,3.5,0.1,6,0.1,7.4
			c0,1.7-0.8,2.5-2.5,2.5h-34.9c-0.9,0-1.9-1-1.9-2.1L210,6.7h-1.7l0.1,16.9c0,1.1,0.4,1.9,1.1,2.6c0.6,0.6,1.3,0.8,2,0.8
			L247.3,26.9L247.3,26.9z"/>
		<rect x="245.2" y="30" class="st0" width="1.7" height="2"/>
		<rect x="248.6" y="30" class="st0" width="1.7" height="2"/>
		<path class="st0" d="M274.3,26.9c1.3,0,2.3-0.4,3-1.1c0.6-0.7,0.9-1.7,0.9-2.9c0-6.5-0.1-11.9-0.1-16.3h-1.7
			c0,6.5,0.1,11.9,0.1,16.2c0,1.7-0.8,2.5-2.5,2.5h-9.2h-2.4c-0.7,0-1.4-0.3-2-1c-0.7-0.7-1.1-1.7-1.1-2.8l-0.1-6.1h-1.7v8.8
			c0,2.2-0.6,4-1.9,5.4c-1.3,1.6-3,2.4-5,2.5c0.3,0.7,0.5,1.1,0.7,1.4c2.4-0.2,4.2-1.2,5.7-2.9c1.5-1.7,2.2-3.8,2.3-6.3
			c0.2,0.7,0.5,1.2,1,1.6c0.6,0.6,1.4,0.9,2.3,0.9L274.3,26.9L274.3,26.9z"/>
		<polygon class="st0" points="282.5,6.7 282.6,26.9 284.3,26.9 284.2,6.7 		"/>
		<path class="st0" d="M306.3,25.4c-0.2-3.1-0.9-5.5-2.2-7.3c-1.1-1.6-2.4-2.4-3.9-2.6v1.4c1.1,0.2,2.2,1,3,2.6
			c0.9,1.7,1.5,3.6,1.6,5.9h-9l-0.5,1.5h67.2c1.8,0,3.7-0.6,5.6-1.7c0.9,1.1,2,1.7,3.2,1.7h20.4c3.2,0,5.2-2.2,5.2-5.9
			c0-1.6-0.5-2.9-1.4-4c-1-1.2-2.4-1.8-4-1.8c-3.2,0-5.2,2.2-5.2,5.8c0,1.8,0.5,3.2,1.7,4.3h-17c-0.7,0-1.2-0.2-1.7-0.8
			c3.2-2.2,5.4-4.5,6.8-6.9c-0.7-0.7-1.6-1.4-2.8-2c-1.8-0.9-3.8-1.4-6-1.4c-2.1,0-4.1,0.3-5.8,1.1c-1.1,0.5-1.8,0.9-2.4,1.4v2.2
			c2.8,0.2,5.5,1.9,8.1,5.1c-1.7,0.9-3.3,1.3-4.8,1.3h-10.8h-2.9c-0.3-2.8-1.1-5.1-2.5-6.7c-1.7-2.1-4.1-3.1-7.3-3.1
			c-2.1,0-4.1,0.4-6.1,1.2l0.4,1.3c0.7-0.3,1.7-0.7,2.8-0.9c-1.1,1.2-1.6,2.6-1.6,4.2c0,1.5,0.5,2.8,1.7,4L306.3,25.4L306.3,25.4z
			 M339.3,25.5c-0.8,0-1.6-0.4-2.1-1.1c-0.6-0.8-1-1.9-1-3.2c0-2.7,1.2-4.3,2.9-4.3c0.8,0,1.6,0.4,2.1,1.1c0.6,0.8,1,1.9,1,3.2
			C342.2,24,341,25.5,339.3,25.5z M342.3,25.4c1-1.2,1.5-2.5,1.5-4c0-1.7-0.5-3.1-1.4-4.1c1.3,0.4,2.5,1.5,3.4,3.2
			c0.9,1.6,1.3,3.2,1.3,4.9H342.3z M360.3,17.8c1.3-0.7,2.4-1.2,3.2-1.5c1.1-0.3,2.5-0.5,4-0.5c1.6,0,3,0.2,4.2,0.7
			c0.5,0.2,1.4,0.7,2.5,1.4c-1.1,1.8-3.1,3.7-5.9,5.6C366.2,20.6,363.6,18.6,360.3,17.8z M394.3,24.5c-0.6,0.7-1.4,1.1-2.4,1.1
			s-1.8-0.4-2.5-1.1c-0.7-0.8-1.1-2-1.1-3.4s0.3-2.6,1-3.4c0.6-0.7,1.4-1.1,2.4-1.1s1.8,0.4,2.5,1.1c0.7,0.8,1.1,2,1.1,3.4
			S394.9,23.7,394.3,24.5z"/>
	</g>
	<g>
		<path class="st0" d="M14.1,53.8c-1.7-1.6-3.7-2.3-6.1-2.3l0,0c-0.9,0.1-1.9,0.3-2.8,0.6c-1.8,0.7-3.1,1.8-4,3.3
			c-0.7,1.4-1,2.8-1,4.1c0,1.3,0.3,2.6,0.9,3.8c0.2,0.6,1,1.5,2.3,2.7c1.5,1,3.1,1.5,4.6,1.5h0.8c0.6,0,1.5-0.1,2.6-0.5
			c1.5-0.6,2.7-1.5,3.7-2.8c0.6-1.1,1-2,1.2-2.8h-1.7c-0.1,0.3-0.2,0.6-0.3,0.9c-1.2,2.4-3.2,3.6-6.1,3.6c-0.6,0-1.3-0.1-2.1-0.4
			c-0.8-0.2-1.7-0.8-2.8-1.8c-0.9-1.2-1.4-2.5-1.4-3.8l0,0h3.9h10.5v-0.6c0-1.6-0.4-3.1-1.3-4.5L14.1,53.8z M1.9,58.3
			c0.1-0.9,0.5-2,1.3-3C4,54.5,4.7,54,5.5,53.6c1.2-0.4,2.1-0.5,2.8-0.5c0.8,0,1.6,0.2,2.6,0.5c1.1,0.4,2.1,1.1,2.8,2.2
			c0.5,0.6,0.8,1.4,1,2.5H1.9z"/>
		<path class="st0" d="M33,52.9c-1.4-0.9-2.9-1.4-4.5-1.5c-1.6,0-3,0.3-4,0.8c-0.2,0-0.5,0.2-1.9,1.2c-0.4,0.4-0.7,0.7-1,1.1v-3.1
			H20v16.1h1.6v-7c0-1,0.1-1.9,0.2-2.7c0.4-1.3,0.9-2.3,1.7-3c0.2-0.2,0.7-0.6,1.4-1c1.2-0.5,2.3-0.8,3.2-0.8
			c1.1,0.1,1.9,0.2,2.3,0.4c2.8,1.1,4.2,3.1,4.2,6.2v7.8h1.5v-7.7c0-1.1-0.1-2-0.2-2.5C35.4,55.4,34.4,53.9,33,52.9z"/>
		<path class="st0" d="M48.3,65.9c-1.4,0-2.8-0.4-4.1-1.3c-1.1-1-1.8-1.9-2.1-2.6c-0.4-1.1-0.7-2.1-0.7-2.9v-6.2h6.8v-1.6h-6.8v-5.7
			h-1.5v12.9c0,2.4,0.7,4.5,2.1,6.1c1.8,1.8,3.9,2.7,6.4,2.7h0.3V66l-0.1-0.2h-0.3V65.9z"/>
		<path class="st0" d="M58,51.4c-1.6,0-2.9,0.6-4.1,1.8v-1.9h-1.5v16h1.5v-9.8c0-1.3,0.2-2.3,0.6-2.8c0.8-1.2,2-1.8,3.6-1.8h0.2
			v-1.3l-0.1-0.2L58,51.4L58,51.4z"/>
		<path class="st0" d="M94,52.4c-1.2-0.6-2.4-0.9-3.6-1c-1.9,0-3.4,0.3-4.5,1c-0.7,0.3-1.5,1-2.5,2.1v-3.2h-1.5V73h1.6v-8.8
			c0.3,0.3,0.6,0.7,1.1,1.2c1.6,1.3,3.3,1.9,5.2,1.9c0.9,0,1.8-0.1,2.8-0.4c2.1-0.8,3.6-1.9,4.4-3.5c0.7-1.1,1-2.5,1-4.1
			c0-1.2-0.1-2.1-0.4-2.7C96.9,54.8,95.7,53.3,94,52.4z M93.7,64.7c-1.3,0.7-2.4,1.1-3.5,1.1h-0.5c-1.2,0-2.4-0.4-3.6-1.1
			c-1.7-1.3-2.6-3-2.6-5v-0.2v-0.1v-0.1c0-1.8,0.7-3.4,2-4.6c1.4-1,2.9-1.5,4.2-1.5H90c1.9,0,3.6,0.8,4.9,2.2
			c0.9,1.3,1.4,2.7,1.4,4.1C96.4,61.6,95.5,63.4,93.7,64.7z"/>
		<path class="st0" d="M107.3,51.4c-1.6,0-2.9,0.6-4.1,1.8v-1.9h-1.5v16h1.5v-9.8c0-1.3,0.2-2.3,0.6-2.8c0.8-1.2,2-1.8,3.6-1.8h0.2
			v-1.3l-0.1-0.2L107.3,51.4L107.3,51.4z"/>
		<path class="st0" d="M144.2,52.9c-1.4-0.9-2.9-1.4-4.5-1.5c-1.6,0-3,0.3-4,0.8c-0.2,0-0.5,0.2-1.9,1.2c-0.4,0.4-0.7,0.7-1,1.1
			v-3.1h-1.5v16.1h1.5v-7c0-1,0.1-1.9,0.2-2.7c0.4-1.3,0.9-2.3,1.7-3c0.2-0.2,0.7-0.6,1.4-1c1.2-0.5,2.3-0.8,3.2-0.8
			c1.1,0.1,1.9,0.2,2.3,0.4c2.8,1.1,4.2,3.1,4.2,6.2v7.8h1.5v-7.7c0-1.1-0.1-2-0.2-2.5C146.6,55.4,145.6,53.9,144.2,52.9z"/>
		<path class="st0" d="M185.5,59.2c0,2.2-0.8,3.9-2.3,5.2c-1.4,0.9-2.7,1.4-4,1.4h-0.4c-0.7,0-1.5-0.2-2.4-0.5
			c-1.4-0.6-2.5-1.4-3.1-2.6c-0.6-0.8-0.9-2.3-0.9-4.5v-6.9h-1.5v7.8c0,0.4,0.1,1.1,0.2,1.9c0.4,1.7,1,2.9,1.8,3.7
			c1.4,1.7,3.6,2.6,6.3,2.6h0.3c0.6,0,1.3-0.1,2-0.4c1.7-0.5,3-1.4,3.9-2.7v3h1.5V51.1h-1.5v8.1H185.5z"/>
		<path class="st0" d="M196.3,51.4c-1.6,0-2.9,0.6-4.1,1.8v-1.9h-1.5v16h1.5v-9.8c0-1.3,0.2-2.3,0.6-2.8c0.8-1.2,2-1.8,3.6-1.8h0.2
			v-1.3l-0.1-0.2L196.3,51.4L196.3,51.4z"/>
		<path class="st0" d="M202,52.3c-1.1,1-1.6,2.2-1.6,3.6s0.6,2.6,1.8,3.6c0.8,0.5,1.6,0.8,2.6,0.8h6.3l0.8,0.2
			c1.2,0.6,1.8,1.4,1.8,2.6l-0.1,0.8c-0.4,1.4-1.4,2.1-3.2,2.1h-10.1v1.5h10.3l1.1-0.1c0.9-0.2,1.6-0.6,2.2-1.2
			c0.7-0.8,1.1-1.6,1.2-2.5v-1.1l-0.1-0.7c-0.2-0.7-0.6-1.4-1.3-2.1c-0.7-0.6-1.5-0.9-2.4-1h-6.9c-0.4,0-0.9-0.3-1.5-0.6
			c-0.7-0.7-1.1-1.4-1.1-2.2c0-0.3,0.1-0.7,0.2-1.1c0.4-1.3,1.5-1.9,3.1-1.9h10v-1.5h-9.8C204,51.4,202.9,51.7,202,52.3z"/>
		<path class="st0" d="M232.1,53c-1.7-1.1-3.2-1.6-4.9-1.6c-1.4,0-2.6,0.2-3.5,0.7c-1.4,0.6-2.5,1.5-3.2,2.5v-8.9h-1.6v21.8h1.6
			v-7.3c0-2.1,0.5-3.8,1.4-4.9l0.5-0.5c1.4-1.1,2.9-1.7,4.6-1.7c1,0.1,1.8,0.2,2.4,0.4c2.8,1.1,4.1,3.1,4.1,6.2v7.9h1.5v-7.7
			c0-1.7-0.2-2.9-0.6-3.6C234.2,55.1,233.4,54,232.1,53z"/>
		<rect x="238.9" y="51.4" class="st0" width="1.5" height="16"/>
		<rect x="238.9" y="45.7" class="st0" width="1.5" height="3"/>
		<path class="st0" d="M256.2,52.4c-1.2-0.6-2.4-0.9-3.6-1c-1.9,0-3.4,0.3-4.5,1c-0.7,0.3-1.5,1-2.5,2.1v-3.2h-1.5V73h1.5v-8.8
			c0.3,0.3,0.6,0.7,1.1,1.2c1.6,1.3,3.3,1.9,5.2,1.9c0.9,0,1.8-0.1,2.8-0.4c2.1-0.8,3.6-1.9,4.4-3.5c0.7-1.1,1-2.5,1-4.1
			c0-1.2-0.1-2.1-0.4-2.7C259.1,54.8,257.9,53.3,256.2,52.4z M256,64.7c-1.3,0.7-2.4,1.1-3.5,1.1h-0.6c-1.2,0-2.4-0.4-3.6-1.1
			c-1.7-1.3-2.5-3-2.5-5v-0.2v-0.1v-0.1c0-1.8,0.7-3.4,2-4.6c1.4-1,2.9-1.5,4.2-1.5h0.3c1.9,0,3.6,0.8,4.9,2.2
			c0.9,1.3,1.4,2.7,1.4,4.1C258.7,61.6,257.8,63.4,256,64.7z"/>
		<rect x="274.1" y="45.7" class="st0" width="1.5" height="3"/>
		<rect x="274.1" y="51.4" class="st0" width="1.5" height="16"/>
		<path class="st0" d="M292.3,52.9c-1.4-0.9-2.9-1.4-4.5-1.5c-1.6,0-3,0.3-4,0.8c-0.2,0-0.5,0.2-1.9,1.2c-0.4,0.4-0.7,0.7-1,1.1
			v-3.1h-1.5v16.1h1.5v-7c0-1,0.1-1.9,0.2-2.7c0.4-1.3,0.9-2.3,1.7-3c0.2-0.2,0.7-0.6,1.4-1c1.2-0.5,2.3-0.8,3.2-0.8
			c1.1,0.1,1.9,0.2,2.3,0.4c2.8,1.1,4.2,3.1,4.2,6.2v7.8h1.6v-7.7c0-1.1-0.1-2-0.2-2.5C294.7,55.4,293.7,53.9,292.3,52.9z"/>
		<path class="st0" d="M300.8,52.3c-1.1,1-1.6,2.2-1.6,3.6s0.6,2.6,1.8,3.6c0.8,0.5,1.6,0.8,2.6,0.8h6.3l0.9,0.2
			c1.2,0.6,1.8,1.4,1.8,2.6l-0.1,0.8c-0.4,1.4-1.4,2.1-3.2,2.1h-10.1v1.5h10.3l1.1-0.1c0.9-0.2,1.6-0.6,2.2-1.2
			c0.7-0.8,1.1-1.6,1.2-2.5v-1.1l-0.1-0.7c-0.2-0.7-0.6-1.4-1.3-2.1c-0.7-0.6-1.5-0.9-2.4-1h-6.9c-0.4,0-0.9-0.3-1.5-0.6
			c-0.7-0.7-1.1-1.4-1.1-2.2c0-0.3,0.1-0.7,0.2-1.1c0.4-1.3,1.4-1.9,3.1-1.9h10v-1.5h-9.8C302.8,51.4,301.7,51.7,300.8,52.3z"/>
		<path class="st0" d="M326.3,65.9c-1.4,0-2.8-0.4-4.1-1.3c-1.1-1-1.8-1.9-2.1-2.6c-0.4-1.1-0.7-2.1-0.7-2.9v-6.2h6.8v-1.6h-6.8
			v-5.7h-1.5v12.9c0,2.4,0.7,4.5,2.1,6.1c1.8,1.8,3.9,2.7,6.4,2.7h0.3V66l-0.1-0.2h-0.3V65.9z"/>
		<rect x="330.4" y="45.7" class="st0" width="1.5" height="3"/>
		<rect x="330.4" y="51.4" class="st0" width="1.5" height="16"/>
		<path class="st0" d="M344.1,65.9c-1.4,0-2.8-0.4-4.1-1.3c-1.1-1-1.8-1.9-2.1-2.6c-0.4-1.1-0.7-2.1-0.7-2.9v-6.2h6.8v-1.6h-6.8
			v-5.7h-1.6v12.9c0,2.4,0.7,4.5,2.1,6.1c1.8,1.8,3.9,2.7,6.4,2.7h0.3V66l-0.1-0.2h-0.2V65.9z"/>
		<path class="st0" d="M362.8,59.2c0,2.2-0.8,3.9-2.3,5.2c-1.4,0.9-2.7,1.4-4,1.4h-0.4c-0.7,0-1.5-0.2-2.4-0.5
			c-1.4-0.6-2.5-1.4-3.1-2.6c-0.6-0.8-0.9-2.3-0.9-4.5v-6.9h-1.6v7.8c0,0.4,0.1,1.1,0.2,1.9c0.4,1.7,1,2.9,1.8,3.7
			c1.4,1.7,3.6,2.6,6.3,2.6h0.3c0.6,0,1.3-0.1,2-0.4c1.7-0.5,3-1.4,4-2.7v3h1.5V51.1h-1.5v8.1H362.8z"/>
		<path class="st0" d="M376.5,65.9c-1.4,0-2.8-0.4-4.1-1.3c-1.1-1-1.8-1.9-2.1-2.6c-0.4-1.1-0.7-2.1-0.7-2.9v-6.2h6.8v-1.6h-6.8
			v-5.7H368v12.9c0,2.4,0.7,4.5,2.1,6.1c1.8,1.8,3.9,2.7,6.4,2.7h0.3V66l-0.2-0.2h-0.1V65.9z"/>
		<path class="st0" d="M76,53.8c-1.7-1.6-3.7-2.3-6.1-2.3l0,0c-0.9,0.1-1.9,0.3-2.8,0.6c-1.8,0.7-3.1,1.8-4,3.3
			c-0.7,1.4-1,2.8-1,4.1c0,1.3,0.3,2.6,0.9,3.8c0.2,0.6,1,1.5,2.3,2.7c1.5,1,3.1,1.5,4.6,1.5h0.8c0.6,0,1.5-0.1,2.6-0.5
			c1.5-0.6,2.7-1.5,3.7-2.8c0.6-1.1,1-2,1.2-2.8h-1.7c-0.1,0.3-0.2,0.6-0.3,0.9c-1.2,2.4-3.2,3.6-6.1,3.6c-0.6,0-1.3-0.1-2.1-0.4
			c-0.8-0.2-1.7-0.8-2.8-1.8c-0.9-1.2-1.4-2.5-1.4-3.8l0,0h3.9h10.5v-0.6c0-1.6-0.4-3.1-1.3-4.5L76,53.8z M63.8,58.3
			c0.1-0.9,0.5-2,1.3-3c0.8-0.8,1.5-1.3,2.3-1.7c1.2-0.4,2.1-0.5,2.8-0.5c0.8,0,1.6,0.2,2.6,0.5c1.1,0.4,2.1,1.1,2.8,2.2
			c0.5,0.6,0.8,1.4,1,2.5H63.8z"/>
		<path class="st0" d="M125.3,53.8c-1.7-1.6-3.7-2.3-6.1-2.3l0,0c-0.9,0.1-1.9,0.3-2.8,0.6c-1.8,0.7-3.1,1.8-4,3.3
			c-0.7,1.4-1,2.8-1,4.1c0,1.3,0.3,2.6,0.9,3.8c0.2,0.6,1,1.5,2.3,2.7c1.5,1,3.1,1.5,4.6,1.5h0.8c0.6,0,1.5-0.1,2.6-0.5
			c1.5-0.6,2.7-1.5,3.7-2.8c0.6-1.1,1-2,1.2-2.8h-1.7c-0.1,0.3-0.2,0.6-0.3,0.9c-1.2,2.4-3.2,3.6-6.1,3.6c-0.6,0-1.3-0.1-2.1-0.4
			c-0.8-0.2-1.7-0.8-2.8-1.8c-0.9-1.2-1.4-2.5-1.4-3.8l0,0h3.9h10.5v-0.6c0-1.6-0.4-3.1-1.3-4.5L125.3,53.8z M113.1,58.3
			c0.1-0.9,0.5-2,1.3-3c0.8-0.8,1.5-1.3,2.3-1.7c1.2-0.4,2.1-0.5,2.8-0.5c0.8,0,1.6,0.2,2.6,0.5c1.1,0.4,2.1,1.1,2.8,2.2
			c0.5,0.6,0.8,1.4,1,2.5H113.1z"/>
		<path class="st0" d="M165,53.8c-1.7-1.6-3.7-2.3-6.1-2.3l0,0c-0.9,0.1-1.9,0.3-2.8,0.6c-1.8,0.7-3.1,1.8-4,3.3
			c-0.7,1.4-1,2.8-1,4.1c0,1.3,0.3,2.6,0.9,3.8c0.2,0.6,1,1.5,2.3,2.7c1.5,1,3.1,1.5,4.6,1.5h0.8c0.6,0,1.5-0.1,2.6-0.5
			c1.5-0.6,2.7-1.5,3.7-2.8c0.6-1.1,1-2,1.2-2.8h-1.7c-0.1,0.3-0.2,0.6-0.3,0.9c-1.2,2.4-3.2,3.6-6.1,3.6c-0.6,0-1.3-0.1-2.1-0.4
			c-0.8-0.2-1.7-0.8-2.8-1.8c-0.9-1.2-1.4-2.5-1.4-3.8l0,0h3.9h10.5v-0.6c0-1.6-0.4-3.1-1.3-4.5L165,53.8z M152.8,58.3
			c0.1-0.9,0.5-2,1.3-3c0.8-0.8,1.5-1.3,2.3-1.7c1.2-0.4,2.1-0.5,2.8-0.5c0.8,0,1.6,0.2,2.6,0.5c1.1,0.4,2.1,1.1,2.8,2.2
			c0.5,0.6,0.8,1.4,1,2.5H152.8z"/>
		<path class="st0" d="M386.1,59.8h10.5v-0.6c0-1.6-0.4-3.1-1.3-4.5l-0.8-1c-1.7-1.6-3.7-2.3-6.1-2.3l0,0c-0.9,0.1-1.9,0.3-2.8,0.6
			c-1.8,0.7-3.1,1.8-4,3.3c-0.7,1.4-1,2.8-1,4.1c0,1.3,0.3,2.6,0.9,3.8c0.2,0.6,1,1.5,2.3,2.7c1.5,1,3.1,1.5,4.6,1.5h0.8
			c0.6,0,1.5-0.1,2.6-0.5c1.5-0.6,2.7-1.5,3.7-2.8c0.6-1.1,1-2,1.2-2.8H395c-0.1,0.3-0.2,0.6-0.3,0.9c-1.2,2.4-3.2,3.6-6.1,3.6
			c-0.6,0-1.3-0.1-2.1-0.4c-0.8-0.2-1.7-0.8-2.8-1.8c-0.9-1.2-1.4-2.5-1.4-3.8l0,0L386.1,59.8L386.1,59.8z M383.6,55.2
			c0.8-0.8,1.5-1.3,2.3-1.7c1.2-0.4,2.1-0.5,2.8-0.5c0.8,0,1.6,0.2,2.6,0.5c1.1,0.4,2.1,1.1,2.8,2.2c0.4,0.6,0.8,1.4,1,2.5h-12.7
			C382.4,57.3,382.8,56.3,383.6,55.2z"/>
	</g>
</g>
</svg>
